<?xml version="1.0" encoding="UTF-8" standalone="no"?><!DOCTYPE svg PUBLIC "-//W3C//DTD SVG 1.1//EN" "http://www.w3.org/Graphics/SVG/1.1/DTD/svg11.dtd"><svg width="100%" height="100%" viewBox="0 0 267 267" version="1.1" xmlns="http://www.w3.org/2000/svg" xmlns:xlink="http://www.w3.org/1999/xlink" xml:space="preserve" xmlns:serif="http://www.serif.com/" style="fill-rule:evenodd;clip-rule:evenodd;stroke-linejoin:round;stroke-miterlimit:2;"><g><path d="M233.333,49.583c0,-2.083 0.833,-3.958 2.5,-5.625l5.833,-5.833l0,-13.125l-13.125,0l-5.833,5.833c-1.667,1.667 -3.542,2.5 -5.625,2.5l-0.833,0c-2.083,0 -3.889,-0.833 -5.417,-2.5l-8.333,-8.333c-1.667,-1.528 -2.5,-3.472 -2.5,-5.833l0,-8.333c0,-2.361 0.833,-4.375 2.5,-6.042c1.528,-1.528 3.472,-2.292 5.833,-2.292l50,0c2.361,0 4.375,0.764 6.042,2.292c1.528,1.667 2.292,3.681 2.292,6.042l0,50c0,2.361 -0.764,4.306 -2.292,5.833c-1.667,1.667 -3.681,2.5 -6.042,2.5l-8.333,0c-2.361,0 -4.306,-0.833 -5.833,-2.5l-8.333,-8.333c-1.667,-1.528 -2.5,-3.333 -2.5,-5.417l0,-0.833Zm25,-41.25l-50,-0l0,8.333l8.333,8.333l8.333,-8.333l16.667,0l8.333,8.333l0,16.667l-8.333,8.333l8.333,8.333l8.333,0l0,-50Z" style="fill:#ac9000;"/><path d="M233.333,216.25c0,-2.083 0.833,-3.889 2.5,-5.417l8.333,-8.333c1.528,-1.667 3.472,-2.5 5.833,-2.5l8.333,0c2.361,0 4.375,0.833 6.042,2.5c1.528,1.528 2.292,3.472 2.292,5.833l0,50c0,2.361 -0.764,4.375 -2.292,6.042c-1.667,1.528 -3.681,2.292 -6.042,2.292l-50,0c-2.361,0 -4.306,-0.764 -5.833,-2.292c-1.667,-1.667 -2.5,-3.681 -2.5,-6.042l0,-8.333c0,-2.361 0.833,-4.306 2.5,-5.833l8.333,-8.333c1.528,-1.667 3.333,-2.5 5.417,-2.5l0.833,0c2.083,0 3.958,0.833 5.625,2.5l5.833,5.833l13.125,0l0,-13.125l-5.833,-5.833c-1.667,-1.667 -2.5,-3.542 -2.5,-5.625l0,-0.833Zm-8.333,33.75l-8.333,-8.333l-8.333,8.333l0,8.333l50,0l0,-50l-8.333,0l-8.333,8.333l8.333,8.333l0,16.667l-8.333,8.333l-16.667,0Z" style="fill:#5a1414;"/><path d="M8.333,66.667c-2.361,0 -4.375,-0.833 -6.042,-2.5c-1.528,-1.528 -2.292,-3.472 -2.292,-5.833l0,-50c0,-2.361 0.764,-4.375 2.292,-6.042c1.667,-1.528 3.681,-2.292 6.042,-2.292l50,0c2.361,0 4.306,0.764 5.833,2.292c1.667,1.667 2.5,3.681 2.5,6.042l0,8.333c0,2.361 -0.833,4.306 -2.5,5.833l-8.333,8.333c-1.528,1.667 -3.333,2.5 -5.417,2.5l-0.833,0c-2.083,0 -3.958,-0.833 -5.625,-2.5l-5.833,-5.833l-13.125,0l0,13.125l5.833,5.833c1.667,1.667 2.5,3.542 2.5,5.625l0,0.833c0,2.083 -0.833,3.889 -2.5,5.417l-8.333,8.333c-1.528,1.667 -3.472,2.5 -5.833,2.5l-8.333,0Zm50,-58.333l-50,-0l-0,50l8.333,0l8.333,-8.333l-8.333,-8.333l0,-16.667l8.333,-8.333l16.667,0l8.333,8.333l8.333,-8.333l0,-8.333Z" style="fill:#5a1414;"/><path d="M16.667,200c2.361,0 4.306,0.833 5.833,2.5l8.333,8.333c1.667,1.528 2.5,3.333 2.5,5.417l0,0.833c0,2.083 -0.833,3.958 -2.5,5.625l-5.833,5.833l0,13.125l13.125,0l5.833,-5.833c1.667,-1.667 3.542,-2.5 5.625,-2.5l0.833,0c2.083,0 3.889,0.833 5.417,2.5l8.333,8.333c1.667,1.528 2.5,3.472 2.5,5.833l0,8.333c0,2.361 -0.833,4.375 -2.5,6.042c-1.528,1.528 -3.472,2.292 -5.833,2.292l-50,0c-2.361,0 -4.375,-0.764 -6.042,-2.292c-1.528,-1.667 -2.292,-3.681 -2.292,-6.042l0,-50c0,-2.361 0.764,-4.306 2.292,-5.833c1.667,-1.667 3.681,-2.5 6.042,-2.5l8.333,0Zm0,25l8.333,-8.333l-8.333,-8.333l-8.333,0l0,50l50,0l0,-8.333l-8.333,-8.333l-8.333,8.333l-16.667,0l-8.333,-8.333l0,-16.667Z" style="fill:#ac9000;"/><path d="M217.083,33.333c2.083,0 3.958,-0.833 5.625,-2.5l5.833,-5.833l13.125,0l0,13.125l-5.833,5.833c-1.667,1.667 -2.5,3.542 -2.5,5.625l0,-16.25l-16.25,0m16.25,17.083c0,2.083 0.833,3.889 2.5,5.417l8.333,8.333c1.528,1.667 3.472,2.5 5.833,2.5l0,133.333c-2.361,0 -4.306,0.833 -5.833,2.5l-8.333,8.333c-1.667,1.528 -2.5,3.333 -2.5,5.417l0,-165.833m-33.333,-33.75c0,2.361 0.833,4.306 2.5,5.833l8.333,8.333c1.528,1.667 3.333,2.5 5.417,2.5l-165.833,0c2.083,0 3.889,-0.833 5.417,-2.5l8.333,-8.333c1.667,-1.528 2.5,-3.472 2.5,-5.833l133.333,0m33.333,200.417c0,2.083 0.833,3.958 2.5,5.625l5.833,5.833l0,13.125l-13.125,0l-5.833,-5.833c-1.667,-1.667 -3.542,-2.5 -5.625,-2.5l16.25,0l0,-16.25m-17.083,16.25c-2.083,0 -3.889,0.833 -5.417,2.5l-8.333,8.333c-1.667,1.528 -2.5,3.472 -2.5,5.833l-133.333,0c-0,-2.361 -0.833,-4.306 -2.5,-5.833l-8.333,-8.333c-1.528,-1.667 -3.333,-2.5 -5.417,-2.5l165.833,0m-182.917,-183.75c-0,-2.083 -0.833,-3.958 -2.5,-5.625l-5.833,-5.833l0,-13.125l13.125,0l5.833,5.833c1.667,1.667 3.542,2.5 5.625,2.5l-16.25,0l0,16.25m-16.667,17.083c2.361,0 4.306,-0.833 5.833,-2.5l8.333,-8.333c1.667,-1.528 2.5,-3.333 2.5,-5.417l0,165.833c0,-2.083 -0.833,-3.889 -2.5,-5.417l-8.333,-8.333c-1.528,-1.667 -3.472,-2.5 -5.833,-2.5l0,-133.333m32.917,166.667c-2.083,0 -3.958,0.833 -5.625,2.5l-5.833,5.833l-13.125,0l0,-13.125l5.833,-5.833c1.667,-1.667 2.5,-3.542 2.5,-5.625l0,16.25l16.25,0" style="fill:#b47b41;fill-rule:nonzero;"/><path d="M225,8.333l-16.667,0l0,8.333l8.333,8.333l8.333,-8.333l0,-8.333Z" style="fill:#b0b820;"/><path d="M250,41.667l-8.333,8.333l8.333,8.333l8.333,0l0,-16.667l-8.333,0Z" style="fill:#b0b820;"/><path d="M225,250l-8.333,-8.333l-8.333,8.333l0,8.333l16.667,0l0,-8.333Z" style="fill:#b82025;"/><path d="M258.333,225l0,-16.667l-8.333,0l-8.333,8.333l8.333,8.333l8.333,0Z" style="fill:#b82025;"/><path d="M8.333,41.667l0,16.667l8.333,0l8.333,-8.333l-8.333,-8.333l-8.333,0Z" style="fill:#b82025;"/><path d="M41.667,16.667l8.333,8.333l8.333,-8.333l0,-8.333l-16.667,0l0,8.333Z" style="fill:#b82025;"/><path d="M16.667,225l8.333,-8.333l-8.333,-8.333l-8.333,0l0,16.667l8.333,0Z" style="fill:#b0b820;"/><path d="M41.667,258.333l16.667,0l0,-8.333l-8.333,-8.333l-8.333,8.333l0,8.333Z" style="fill:#b0b820;"/><path d="M225,16.667l16.667,0l8.333,8.333l0,16.667l8.333,0l0,-33.333l-33.333,-0l0,8.333Z" style="fill:#f9f702;"/><path d="M225,258.333l33.333,0l0,-33.333l-8.333,0l0,16.667l-8.333,8.333l-16.667,0l0,8.333Z" style="fill:#f9020c;"/><path d="M41.667,8.333l-33.333,0l-0,33.333l8.333,0l0,-16.667l8.333,-8.333l16.667,0l0,-8.333Z" style="fill:#f9020c;"/><path d="M8.333,225l0,33.333l33.333,0l0,-8.333l-16.667,0l-8.333,-8.333l0,-16.667l-8.333,0Z" style="fill:#f9f702;"/><path d="M250,66.667l8.333,0l0,133.333l-8.333,0l0,-133.333m-50,-58.333l0,8.333l-133.333,0l-0,-8.333l133.333,0m0,241.667l0,8.333l-133.333,0l-0,-8.333l133.333,0m-183.333,-183.333l0,133.333l-8.333,0l0,-133.333l8.333,-0" style="fill:#6d4b27;fill-rule:nonzero;"/><path d="M233.333,49.583l0,183.75l-200,0l-0,-200l200,-0l0,16.25" style="fill:#a3703a;fill-rule:nonzero;"/></g></svg>